<svg xmlns="http://www.w3.org/2000/svg" id="Logo" width="32" height="32" version="1.1" viewBox="0 0 32 32">
  <title>Mercury logo</title>
  <desc>The logo for Mercury, featuring a circular emblem with abstract, interconnected swirling lines.</desc>
  <g id="Symbol">
    <path
      d="M23.9473,15.9296872c0-1.1955996.8087997-2.0044003,2.0394993-2.0044003,1.1253014,0,1.898901.8088007,1.898901,2.0044003,0,1.1603994-.7735996,1.934001-1.898901,1.934001-1.2306995,0-2.0394993-.7736015-2.0394993-1.934001ZM20.9230995,9.6703173c.7033005-1.0197697,1.1604004-2.2505503,1.1604004-3.9736099,1.7231007,1.0197797,3.1648006,2.4615002,4.1846008,4.1846094-1.6879005,0-2.9187012.4570704-3.9384003,1.19557-.3868999-.5274992-.8791008-1.0196991-1.406601-1.4065695ZM20.8526993,22.2592875c.5275002-.3866997.9847012-.8791008,1.406601-1.3714008,1.0198002.7737007,2.285799,1.2308006,4.0088005,1.2308006-1.0198002,1.7581997-2.4615002,3.2000008-4.1846008,4.1846008,0-1.7582016-.4570999-3.0242004-1.2308006-4.0440006ZM19.7978001,1.3714173c6.5757999,1.6527499,11.287899,7.4901298,11.287899,14.62857,0,2.9890003-2.2504997,5.2043991-5.169199,5.2043991-1.1956005,0-2.3209-.3867989-3.1648006-1.0197983.4570999-.7384014.7735996-1.5472012.9846001-2.4264011.5626011.6329994,1.3714008,1.0198002,2.2504997,1.0198002,1.5121002,0,2.8132-1.3010998,2.8132-2.8483,0-4.8879004-2.8132-9.17803-6.9273987-11.3231101-.3164997-1.2659297-1.0902004-2.4263699-2.0748005-3.2351598ZM18.1450996,20.1845881c1.5121002-.7736015,2.5669994-2.3560009,2.5669994-4.1846008,0-3.4462004,3.0593014-5.6967001,6.0835018-5.1341.3867989.8439999.6680984,1.7933998.8790989,2.7428999-.4923-.3867998-1.0548992-.5978003-1.6879005-.5978003-1.6175995,0-2.9538994,1.3362999-2.9538994,2.9187002,0,2.3912001-1.0900993,4.4306993-2.7427998,5.6967001-.5977993-.6329994-1.3362999-1.1252995-2.1450005-1.4417992ZM14.0307999,6.1186573c0-1.19559.8087997-2.0043898,2.0394993-2.0043898,1.1253014,0,1.898901.8087997,1.898901,2.0043898,0,1.16044-.7735996,1.9340501-1.898901,1.9340501-1.2306995,0-2.0394993-.7736101-2.0394993-1.9340501ZM14.0307999,25.9516875c0-1.1956005.8087997-2.0044003,2.0394993-2.0044003,1.1253014,0,1.898901.8087997,1.898901,2.0044003,0,1.1604004-.7735996,1.934-1.898901,1.934-1.2306995,0-2.0394993-.7735996-2.0394993-1.934ZM12.2021999,15.9999873c0-2.1801996,1.6176004-3.7978001,3.8330002-3.7978001,2.1802006,0,3.7625999,1.6176004,3.7625999,3.7978001,0,2.2154007-1.5823994,3.7978001-3.7625999,3.7978001-2.2153997,0-3.8330002-1.5823994-3.8330002-3.7978001ZM16.0352001,11.2878872c-3.3759003,0-5.6264-2.81318-5.1341-6.0483398.8790998-.4219799,1.8636999-.7384601,2.8483-.91429-.3867998.49231-.6329002,1.1252899-.6329002,1.7933998,0,1.5472698,1.3361998,2.8483901,2.9537992,2.8483901,2.3561001,0,4.3956013.9846096,5.6264,2.6373396-.6680984.6330004-1.1603985,1.4066-1.5120983,2.2505007-.7736015-1.5121002-2.3560009-2.5670004-4.1494007-2.5670004ZM10.8308001,25.8812872c0-1.1956005.3867998-2.2856998,1.0198002-3.1296005.7031994.4218998,1.4769001.7735996,2.3207998.9846001-.6330004.527401-1.0549002,1.3362999-1.0549002,2.2154007,0,1.5471992,1.3361998,2.848299,2.9537992,2.848299,4.9231014,0,9.1429005-2.7779999,11.2528-6.8571987,1.3011017-.3164005,2.4615002-1.0549011,3.2702999-2.0747013-1.6526985,6.5407009-7.4549999,11.2175999-14.593399,11.2175999-2.9187002,0-5.1691999-2.2504997-5.1691999-5.2043991ZM10.4088001,20.3252875c.5978003-.6329994,1.0901003-1.3715,1.4066-2.1802006.7735996,1.5121002,2.3912001,2.5669994,4.2198,2.5669994,3.3757992,0,5.5911999,2.9890003,5.0636997,6.1187-.8790989.3868008-1.8285999.7033005-2.8132.8791008.3516998-.4923.5977993-1.0900993.5977993-1.7581997,0-1.5825005-1.3010998-2.9188004-2.8132-2.9188004-2.355999,0-4.3955994-1.0548992-5.661499-2.7075996ZM5.7670598,22.1186873c1.68788,0,2.9538302-.4570999,3.9736104-1.2308006.4219294.4923.8791294.9847012,1.4066296,1.3714008-.7736998,1.0198002-1.2307997,2.285799-1.2307997,4.0088005-1.7231102-1.0198002-3.1296701-2.4263-4.1494403-4.1494007ZM5.7318902,9.8813168c1.0197797-1.6879396,2.4614997-3.1296597,4.1846099-4.1494393,0,1.7582197.4570999,3.0241694,1.2658997,4.0439401-.5275002.3867693-1.0198002.8439693-1.4065695,1.3714695-1.0197706-.8088999-2.2857203-1.2659702-4.0439401-1.2659702ZM4.2901101,18.1450869c.5274701.3868008,1.16044.6329002,1.8637199.6329002,1.5121098,0,2.81323-1.3010998,2.81323-2.8483,0-2.2858,1.0901403-4.2550001,2.7428398-5.5208998.6329002.5978003,1.3713999,1.0901003,2.1801996,1.4066-1.5472994.7735996-2.6021996,2.3912001-2.6021996,4.1845999,0,3.4461994-2.9186802,5.6264-6.0483398,5.1341-.4219799-.9494991-.7384601-1.9340992-.94945-2.9890003ZM4.1142802,15.9296872c0-1.1955996.8087997-2.0044003,2.0395498-2.0044003,1.1252799,0,1.89889.8088007,1.89889,2.0044003,0,1.1603994-.7736101,1.934001-1.89889,1.934001-1.2307501,0-2.0395498-.7736015-2.0395498-1.934001ZM1.37143,12.1670872C3.05934,5.5912072,8.8615599.9142702,15.9647999.9142702c2.9538994,0,5.204401,2.250547,5.204401,5.1692169,0,1.19561-.3516006,2.2505598-.9493999,3.0945005-.7033005-.4219408-1.4770012-.7384405-2.3209019-.9142809.5978012-.5274396.9846001-1.3011098.9846001-2.1450496,0-1.5823998-1.3010998-2.9186699-2.8132-2.9186699-4.9581995,0-9.2482991,2.8131697-11.3933792,6.8572004-1.3011.3163996-2.46154,1.0900993-3.3054899,2.1098995ZM.914283,15.9999873c0-2.9538002,2.250547-5.2044001,5.204387-5.2044001,1.19561,0,2.2857203.3867998,3.1296601,1.0550003-.4219398.6680994-.7384405,1.4066-.94944,2.2152996-.5274501-.6329994-1.3011103-1.0549002-2.1450601-1.0549002-1.6175599,0-2.95383,1.3362999-2.95383,2.9187002,0,4.9933996,2.7780001,9.2482996,6.8923004,11.4285002.3164997,1.3010998,1.0900993,2.4263992,2.1098995,3.2703991C5.62639,29.0109869.914283,23.1735865.914283,15.9999873ZM15.9647999,31.9999873c8.5450993,0,16.0352001-6.8220005,16.0352001-16C32,7.1384274,24.8616009-.0000127,15.9647999-.0000127,7.1384401-.0000127,0,7.1384274,0,15.9999873c0,8.8616009,7.1384401,16,15.9647999,16Z" />
    <path
      d="M23.9473,15.9296872c0-1.1955996.8087997-2.0044003,2.0394993-2.0044003,1.1253014,0,1.898901.8088007,1.898901,2.0044003,0,1.1603994-.7735996,1.934001-1.898901,1.934001-1.2306995,0-2.0394993-.7736015-2.0394993-1.934001ZM20.9230995,9.6703173c.7033005-1.0197697,1.1604004-2.2505503,1.1604004-3.9736099,1.7231007,1.0197797,3.1648006,2.4615002,4.1846008,4.1846094-1.6879005,0-2.9187012.4570704-3.9384003,1.19557-.3868999-.5274992-.8791008-1.0196991-1.406601-1.4065695ZM20.8526993,22.2592875c.5275002-.3866997.9847012-.8791008,1.406601-1.3714008,1.0198002.7737007,2.285799,1.2308006,4.0088005,1.2308006-1.0198002,1.7581997-2.4615002,3.2000008-4.1846008,4.1846008,0-1.7582016-.4570999-3.0242004-1.2308006-4.0440006ZM19.7978001,1.3714173c6.5757999,1.6527499,11.287899,7.4901298,11.287899,14.62857,0,2.9890003-2.2504997,5.2043991-5.169199,5.2043991-1.1956005,0-2.3209-.3867989-3.1648006-1.0197983.4570999-.7384014.7735996-1.5472012.9846001-2.4264011.5626011.6329994,1.3714008,1.0198002,2.2504997,1.0198002,1.5121002,0,2.8132-1.3010998,2.8132-2.8483,0-4.8879004-2.8132-9.17803-6.9273987-11.3231101-.3164997-1.2659297-1.0902004-2.4263699-2.0748005-3.2351598ZM18.1450996,20.1845881c1.5121002-.7736015,2.5669994-2.3560009,2.5669994-4.1846008,0-3.4462004,3.0593014-5.6967001,6.0835018-5.1341.3867989.8439999.6680984,1.7933998.8790989,2.7428999-.4923-.3867998-1.0548992-.5978003-1.6879005-.5978003-1.6175995,0-2.9538994,1.3362999-2.9538994,2.9187002,0,2.3912001-1.0900993,4.4306993-2.7427998,5.6967001-.5977993-.6329994-1.3362999-1.1252995-2.1450005-1.4417992ZM14.0307999,6.1186573c0-1.19559.8087997-2.0043898,2.0394993-2.0043898,1.1253014,0,1.898901.8087997,1.898901,2.0043898,0,1.16044-.7735996,1.9340501-1.898901,1.9340501-1.2306995,0-2.0394993-.7736101-2.0394993-1.9340501ZM14.0307999,25.9516875c0-1.1956005.8087997-2.0044003,2.0394993-2.0044003,1.1253014,0,1.898901.8087997,1.898901,2.0044003,0,1.1604004-.7735996,1.934-1.898901,1.934-1.2306995,0-2.0394993-.7735996-2.0394993-1.934ZM12.2021999,15.9999873c0-2.1801996,1.6176004-3.7978001,3.8330002-3.7978001,2.1802006,0,3.7625999,1.6176004,3.7625999,3.7978001,0,2.2154007-1.5823994,3.7978001-3.7625999,3.7978001-2.2153997,0-3.8330002-1.5823994-3.8330002-3.7978001ZM16.0352001,11.2878872c-3.3759003,0-5.6264-2.81318-5.1341-6.0483398.8790998-.4219799,1.8636999-.7384601,2.8483-.91429-.3867998.49231-.6329002,1.1252899-.6329002,1.7933998,0,1.5472698,1.3361998,2.8483901,2.9537992,2.8483901,2.3561001,0,4.3956013.9846096,5.6264,2.6373396-.6680984.6330004-1.1603985,1.4066-1.5120983,2.2505007-.7736015-1.5121002-2.3560009-2.5670004-4.1494007-2.5670004ZM10.8308001,25.8812872c0-1.1956005.3867998-2.2856998,1.0198002-3.1296005.7031994.4218998,1.4769001.7735996,2.3207998.9846001-.6330004.527401-1.0549002,1.3362999-1.0549002,2.2154007,0,1.5471992,1.3361998,2.848299,2.9537992,2.848299,4.9231014,0,9.1429005-2.7779999,11.2528-6.8571987,1.3011017-.3164005,2.4615002-1.0549011,3.2702999-2.0747013-1.6526985,6.5407009-7.4549999,11.2175999-14.593399,11.2175999-2.9187002,0-5.1691999-2.2504997-5.1691999-5.2043991ZM10.4088001,20.3252875c.5978003-.6329994,1.0901003-1.3715,1.4066-2.1802006.7735996,1.5121002,2.3912001,2.5669994,4.2198,2.5669994,3.3757992,0,5.5911999,2.9890003,5.0636997,6.1187-.8790989.3868008-1.8285999.7033005-2.8132.8791008.3516998-.4923.5977993-1.0900993.5977993-1.7581997,0-1.5825005-1.3010998-2.9188004-2.8132-2.9188004-2.355999,0-4.3955994-1.0548992-5.661499-2.7075996ZM5.7670598,22.1186873c1.68788,0,2.9538302-.4570999,3.9736104-1.2308006.4219294.4923.8791294.9847012,1.4066296,1.3714008-.7736998,1.0198002-1.2307997,2.285799-1.2307997,4.0088005-1.7231102-1.0198002-3.1296701-2.4263-4.1494403-4.1494007ZM5.7318902,9.8813168c1.0197797-1.6879396,2.4614997-3.1296597,4.1846099-4.1494393,0,1.7582197.4570999,3.0241694,1.2658997,4.0439401-.5275002.3867693-1.0198002.8439693-1.4065695,1.3714695-1.0197706-.8088999-2.2857203-1.2659702-4.0439401-1.2659702ZM4.2901101,18.1450869c.5274701.3868008,1.16044.6329002,1.8637199.6329002,1.5121098,0,2.81323-1.3010998,2.81323-2.8483,0-2.2858,1.0901403-4.2550001,2.7428398-5.5208998.6329002.5978003,1.3713999,1.0901003,2.1801996,1.4066-1.5472994.7735996-2.6021996,2.3912001-2.6021996,4.1845999,0,3.4461994-2.9186802,5.6264-6.0483398,5.1341-.4219799-.9494991-.7384601-1.9340992-.94945-2.9890003ZM4.1142802,15.9296872c0-1.1955996.8087997-2.0044003,2.0395498-2.0044003,1.1252799,0,1.89889.8088007,1.89889,2.0044003,0,1.1603994-.7736101,1.934001-1.89889,1.934001-1.2307501,0-2.0395498-.7736015-2.0395498-1.934001ZM1.37143,12.1670872C3.05934,5.5912072,8.8615599.9142702,15.9647999.9142702c2.9538994,0,5.204401,2.250547,5.204401,5.1692169,0,1.19561-.3516006,2.2505598-.9493999,3.0945005-.7033005-.4219408-1.4770012-.7384405-2.3209019-.9142809.5978012-.5274396.9846001-1.3011098.9846001-2.1450496,0-1.5823998-1.3010998-2.9186699-2.8132-2.9186699-4.9581995,0-9.2482991,2.8131697-11.3933792,6.8572004-1.3011.3163996-2.46154,1.0900993-3.3054899,2.1098995ZM.914283,15.9999873c0-2.9538002,2.250547-5.2044001,5.204387-5.2044001,1.19561,0,2.2857203.3867998,3.1296601,1.0550003-.4219398.6680994-.7384405,1.4066-.94944,2.2152996-.5274501-.6329994-1.3011103-1.0549002-2.1450601-1.0549002-1.6175599,0-2.95383,1.3362999-2.95383,2.9187002,0,4.9933996,2.7780001,9.2482996,6.8923004,11.4285002.3164997,1.3010998,1.0900993,2.4263992,2.1098995,3.2703991C5.62639,29.0109869.914283,23.1735865.914283,15.9999873ZM15.9647999,31.9999873c8.5450993,0,16.0352001-6.8220005,16.0352001-16C32,7.1384274,24.8616009-.0000127,15.9647999-.0000127,7.1384401-.0000127,0,7.1384274,0,15.9999873c0,8.8616009,7.1384401,16,15.9647999,16Z" />
  </g>
</svg>